<?xml version="1.0" encoding="UTF-8"?>
<svg width="192" height="34" version="1.1" viewBox="0 0 185.05 32.769" xmlns="http://www.w3.org/2000/svg" fill="#0c1645">
<defs>
<clipPath id="a">
<rect x=".49615" y="79.633" width="192.51" height="33.49" fill-opacity=".08" stroke-width=".96378"/>
</clipPath>
</defs>
<g transform="translate(-3.4731 -79.137)" clip-path="url(#a)" clip-rule="evenodd" fill-rule="evenodd">
<path d="m0 0h192.76v192.76h-192.76z" fill="none"/>
<path d="m20.858 87.542h-4.226v13.243h-3.944v-13.243h-4.184v-2.776h12.354zm16.517 13.243h-4.378l-4.557-6.794h-1.625v6.794h-3.946v-16.019h5.926c1.943 0 3.45 0.403 4.514 1.21 1.063 0.806 1.596 1.914 1.596 3.325 0 1.05-0.255 1.902-0.768 2.559-0.51 0.657-1.191 1.106-2.042 1.35zm-6.417-10.861c0-0.797-0.216-1.393-0.647-1.79-0.432-0.395-1.048-0.592-1.845-0.592h-1.651v4.742h1.78c0.731 0 1.308-0.212 1.732-0.639 0.419-0.427 0.631-1 0.631-1.721z"/>
<path d="m54.37 100.78h-4.452l-1.318-2.717h-6.428l-1.151 2.717h-4.067l8.032-16.163h1.28zm-6.523-4.278-2.549-5.355-2.503 5.355zm21.491-10.614-7.796 15.009h-1.842l-7.818-15.009 3.794-1.388 5.069 10.062 4.885-10.062zm12.389 14.892h-10.641v-16.019h10.244v2.776h-6.297v4.251h6.535v1.792h-6.535v4.425h6.694zm13.549 0h-10.919v-16.019h3.946v13.244h6.973zm47.376 0h-4.814l-4.758-6.316-1.029 0.874v5.442h-3.947v-16.019h3.947v6.248l7.314-6.509 2.449 2.212-5.984 5.35zm1.983-16.019h3.945v16.019h-3.945zm22.049 16.019h-1.664l-8.221-9.227v9.227h-3.707v-16.019h1.666l8.222 9.198v-9.198h3.704zm17.568-1.242c-0.643 0.48-1.518 0.848-2.631 1.098-1.109 0.252-2.041 0.377-2.791 0.377-2.91 0-5.064-0.775-6.465-2.33-1.402-1.553-2.102-3.449-2.102-5.685 0-2.159 0.771-4.096 2.316-5.81 1.541-1.713 3.695-2.57 6.457-2.57 0.748 0 1.613 0.12 2.604 0.359 0.986 0.24 1.725 0.525 2.215 0.854l-0.561 3.934h-1.033v-1.361c-0.279-0.229-0.697-0.431-1.26-0.606-0.561-0.173-1.203-0.261-1.934-0.261-1.43 0-2.561 0.521-3.393 1.562-0.836 1.041-1.258 2.243-1.268 3.606 0 1.629 0.375 2.928 1.125 3.9 0.75 0.971 1.918 1.457 3.504 1.457a7.57 7.57 0 0 0 1.176-0.076 4.39 4.39 0 0 0 0.773-0.184v-4.223h-2.91v-1.792h6.176v7.751zm-84.096-14.903h23.117v1.026h-23.117zm0.487 15.073h23.119v1.025h-23.119zm2.707-2.231s1.697-1.349 8.689-1.349 9.176 1.29 9.176 1.29l0.928-5.278-2.424 3.108s-0.646-0.205-0.971-0.264c0 0.029-0.607-3.959-0.607-3.959l-1.777 3.549s-0.768-0.089-1.213-0.089c0 0.029-1.09-4.046-1.09-4.046l-1.658 3.901h-0.809c0-0.031-1.617-3.93-1.617-3.93l-0.809 4.046s-0.564 0.089-0.971 0.119c0-0.03-2.141-3.638-2.141-3.638l-0.564 4.194s-0.648 0.117-0.811 0.175c0-0.029-2.787-3.314-2.787-3.314zm-1.495-7.212c0 0.193-0.219 0.351-0.486 0.351s-0.484-0.157-0.484-0.351 0.217-0.352 0.484-0.352 0.486 0.158 0.486 0.352zm3.999-1.115c0 0.195-0.215 0.352-0.482 0.352-0.27 0-0.484-0.156-0.484-0.352 0-0.195 0.215-0.352 0.484-0.352 0.267 0 0.482 0.157 0.482 0.352zm4.369-0.821c0 0.193-0.221 0.352-0.488 0.352-0.266 0-0.484-0.158-0.484-0.352 0-0.195 0.219-0.353 0.484-0.353 0.267 0 0.488 0.158 0.488 0.353zm4.281-0.03c0 0.194-0.217 0.352-0.484 0.352s-0.484-0.158-0.484-0.352c0-0.193 0.217-0.352 0.484-0.352s0.484 0.159 0.484 0.352zm4.488 0.821c0 0.195-0.221 0.353-0.486 0.353-0.27 0-0.486-0.158-0.486-0.353 0-0.194 0.217-0.351 0.486-0.351 0.265 0 0.486 0.157 0.486 0.351zm4.244 1.32c0 0.193-0.219 0.353-0.486 0.353-0.27 0-0.486-0.159-0.486-0.353 0-0.195 0.217-0.352 0.486-0.352 0.268 0 0.486 0.157 0.486 0.352zm-94.151 13.934c1.128 0 1.948 0 1.948 1.518 0 1.469-0.708 1.506-1.602 1.506h-0.87v-3.023h0.524zm-1.683-0.772v4.566h2.183c0.371 0 1.329 0 1.917-0.51 0.733-0.631 0.733-1.455 0.733-1.729 0-0.893-0.291-1.314-0.483-1.557-0.621-0.771-1.571-0.771-2.224-0.771h-2.126zm5.814 0h4.277v0.772h-3.117v1.014h2.9v0.773h-2.9v1.236h3.222v0.772h-4.382zm7.612 0h1.159v3.795h2.9v0.772h-4.059zm6.394 2.762 0.781-1.695 0.798 1.695zm3.722 1.805-2.312-4.566h-1.232l-2.247 4.566h1.24l0.476-1.033h2.303l0.5 1.033zm2.094-1.805 0.782-1.695 0.797 1.695zm3.72 1.805-2.311-4.566h-1.232l-2.247 4.566h1.24l0.476-1.033h2.304l0.5 1.033zm2.835-2.447h2.505v1.816c-0.338 0.262-1.297 0.709-2.464 0.709-2.078 0-2.924-1.174-2.924-2.373 0-1.117 0.774-2.348 2.86-2.348 0.934 0 2.142 0.217 2.457 1.34l-1.16 0.172c-0.225-0.631-0.942-0.721-1.289-0.721-0.491 0-1.015 0.121-1.353 0.51-0.25 0.293-0.314 0.656-0.314 1.008 0 0.676 0.298 1.621 1.651 1.621 0.676 0 1.217-0.301 1.361-0.391v-0.574h-1.329v-0.769zm4.519 0.878c0.055 0.236 0.208 0.873 1.256 0.873 0.813 0 1.135-0.338 1.135-0.631 0-0.383-0.402-0.467-1.466-0.67-0.571-0.115-1.844-0.363-1.844-1.371 0-0.498 0.41-1.275 2.102-1.275 1.128 0 2.158 0.352 2.207 1.383l-1.167 0.039c-0.048-0.236-0.137-0.664-1.055-0.664-0.347 0-0.975 0.084-0.975 0.453 0 0.295 0.362 0.422 1.288 0.594 0.877 0.166 2.07 0.391 2.07 1.512 0 0.555-0.443 1.02-0.942 1.199-0.515 0.191-1.095 0.205-1.361 0.205-0.621 0-2.15-0.047-2.376-1.562zm5.782-2.226h-1.706v-0.772h4.573v0.772h-1.707v3.795h-1.16zm3.641-0.772h4.277v0.772h-3.118v1.014h2.899v0.773h-2.899v1.236h3.223v0.772h-4.382zm9.334 0.772c0.693 0 0.967 0 1.225 0.18a0.526 0.526 0 0 1 0.266 0.465c0 0.656-0.813 0.656-1.409 0.656h-0.645v-1.301zm-1.723 3.795h1.159v-1.721h0.766c0.516 0 1.136-8e-3 1.546-0.16 0.362-0.135 0.942-0.479 0.942-1.283 0-0.771-0.54-1.121-0.91-1.262-0.305-0.115-0.62-0.141-1.635-0.141h-1.868zm6.531-3.795h0.91c0.782 0 0.926 0 1.144 0.102a0.49 0.49 0 0 1 0.297 0.467c0 0.133-0.04 0.426-0.442 0.535-0.202 0.057-0.693 0.057-1.047 0.057h-0.862zm-1.159 3.795h1.16v-1.906h0.233c0.782 0 0.854 0.09 1.556 0.912l0.837 0.994h1.393l-0.7-0.893c-0.58-0.734-0.806-0.9-1.289-1.115v-0.014c0.224-0.02 0.443-0.07 0.644-0.141 0.563-0.184 0.878-0.625 0.878-1.121 0-0.447-0.274-0.971-0.943-1.168-0.177-0.045-0.458-0.115-1.32-0.115h-2.449zm5.75-4.567h1.16v4.567h-1.16zm5.541 0v2.883c0 0.332 0 0.816-0.314 1.188-0.354 0.42-0.917 0.574-1.594 0.574-1.151 0-1.756-0.492-1.788-1.494l1.104-0.115c0.032 0.289 0.041 0.818 0.726 0.818 0.708 0 0.708-0.459 0.708-0.906v-2.947h1.158zm2.109 2.998c0.057 0.236 0.211 0.873 1.258 0.873 0.814 0 1.135-0.338 1.135-0.631 0-0.383-0.402-0.467-1.465-0.67-0.572-0.115-1.844-0.363-1.844-1.371 0-0.498 0.41-1.275 2.102-1.275 1.127 0 2.158 0.352 2.207 1.383l-1.168 0.039c-0.049-0.236-0.137-0.664-1.055-0.664-0.348 0-0.977 0.084-0.977 0.453 0 0.295 0.363 0.422 1.291 0.594 0.877 0.166 2.068 0.391 2.068 1.512 0 0.555-0.441 1.02-0.941 1.199-0.516 0.191-1.096 0.205-1.361 0.205-0.619 0-2.15-0.047-2.377-1.562zm6.678-2.998h1.162v4.567h-1.162zm2.328 0h1.127l2.344 3.049h0.015v-3.049h1.08v4.567h-1.168l-2.302-2.979h-0.018v2.979h-1.078zm8.029 0h1.16v2.028l2.36-2.028h1.562l-2.166 1.78 2.287 2.787h-1.506l-1.588-2.143-0.949 0.766v1.377h-1.16zm5.227 0h1.191l0.863 3.139h0.016l1.047-3.139h1.385l1.007 3.19h0.016l0.869-3.19h1.178l-1.402 4.567h-1.241l-1.134-3.412h-0.018l-1.135 3.412h-1.265zm9.181 2.762 0.783-1.695 0.795 1.695zm3.723 1.805-2.312-4.566h-1.232l-2.246 4.566h1.238l0.477-1.033h2.303l0.5 1.033zm0.619-4.567h1.16v3.795h2.899v0.772h-4.059zm4.858 0h1.158v4.567h-1.158zm3.582 0.772h-1.707v-0.772h4.576v0.772h-1.709v3.795h-1.16zm3.64-0.772h4.278v0.772h-3.118v1.014h2.901v0.773h-2.901v1.236h3.223v0.772h-4.383zm5.309 0h1.158v4.567h-1.158zm3.584 0.772h-1.709v-0.772h4.576v0.772h-1.709v3.795h-1.158z"/>
</g>
</svg>
